HIERARCHY
ROOT ui
{
	 OFFSET 0 0 0
	 CHANNELS 3 XPosition YPosition Z Position
	 EndSite
	 {
	 OFFSET 0 -1 0
	 }
}
ROOT li
{
	 OFFSET 0 0 0
	 CHANNELS 3 XPosition YPosition Z Position
	 EndSite
	 {
	 OFFSET 0 -1 0
	 }
}
ROOT ul
{
	 OFFSET 0 0 0
	 CHANNELS 3 XPosition YPosition Z Position
	 EndSite
	 {
	 OFFSET 0 -1 0
	 }
}
ROOT ll
{
	 OFFSET 0 0 0
	 CHANNELS 3 XPosition YPosition Z Position
	 EndSite
	 {
	 OFFSET 0 -1 0
	 }
}
ROOT tt
{
	 OFFSET 0 0 0
	 CHANNELS 3 XPosition YPosition Z Position
	 EndSite
	 {
	 OFFSET 0 -1 0
	 }
}
ROOT tb
{
	 OFFSET 0 0 0
	 CHANNELS 3 XPosition YPosition Z Position
	 EndSite
	 {
	 OFFSET 0 -1 0
	 }
}
ROOT td
{
	 OFFSET 0 0 0
	 CHANNELS 3 XPosition YPosition Z Position
	 EndSite
	 {
	 OFFSET 0 -1 0
	 }
}
ROOT v
{
	 OFFSET 0 0 0
	 CHANNELS 3 XPosition YPosition Z Position
	 EndSite
	 {
	 OFFSET 0 -1 0
	 }
}
ROOT bn
{
	 OFFSET 0 0 0
	 CHANNELS 3 XPosition YPosition Z Position
	 EndSite
	 {
	 OFFSET 0 -1 0
	 }
}
MOTION
Frames: 24
Frame Time: 0.002
0.006714022159576416	-0.006338280200958252	0		0.5020426940917969	-2.628003662109375	0		-1.039240478515625	0.1671440887451172	0		-0.5995197143554688	-2.755539306640625	0		1.0882369384765624	-0.8485978393554687	0		2.87221630859375	-0.7587601928710938	0		4.39955517578125	-0.4321087646484375	0		5.91660595703125	0.41682440185546876	0		-0.17887591552734375	5.93214013671875	0		
0.013866854667663573	9.509350061416626E-4	0		0.5050126342773438	-2.62366357421875	0		-1.0332841796875	0.16350480651855467	0		-0.5626550903320312	-2.756778564453125	0		1.09127490234375	-0.8452859497070313	0		2.87270654296875	-0.7314835205078125	0		4.42464697265625	-0.4273687438964844	0		5.91664990234375	0.41695758056640625	0		-0.16436053466796874	5.94330712890625	0		
0.01379133415222168	0.0014066100120544434	0		0.5068302307128906	-2.6212724609375	0		-1.0652890625	0.1676158142089844	0		-0.6286832885742187	-2.74505859375	0		1.096282958984375	-0.837984130859375	0		2.843221923828125	-0.7506387329101563	0		4.41181201171875	-0.41291424560546874	0		5.92074609375	0.42501336669921874	0		-0.03170317268371582	5.96430029296875	0		
-0.06028886795043945	0.0072840418815612795	0		0.504468017578125	-2.622774169921875	0		-1.0394332275390625	0.16868217468261718	0		-0.5523857421875	-2.7649716796875	0		1.0960645751953124	-0.8375589599609375	0		2.89729931640625	-0.7353339233398437	0		4.411619140625	-0.4126872863769531	0		5.9164541015625	0.4172265625	0		-0.16294224548339845	5.9432548828125	0		
0.006239558219909668	-0.004447985172271729	0		0.5020104675292969	-2.624244873046875	0		-1.039675537109375	0.1692718505859375	0		-0.6257456665039063	-2.760039306640625	0		1.095758056640625	-0.8371054077148438	0		2.849744140625	-0.74810791015625	0		4.39551220703125	-0.40314544677734376	0		5.9162275390625	0.4173729248046875	0		-0.16379754638671876	5.94480712890625	0		
0.009969459533691407	-9.70192015171051E-4	0		0.528447998046875	-2.627233642578125	0		-1.039989990234375	0.1698955841064453	0		-0.5574002685546875	-2.76774560546875	0		1.09537646484375	-0.836624267578125	0		2.874477294921875	-0.74221728515625	0		4.40310107421875	-0.40603521728515624	0		5.9159296875	0.41753219604492187	0		-0.16274542236328124	5.944353515625	0		
0.009585238456726075	-3.8760599493980406E-4	0		0.512810302734375	-2.630401611328125	0		-1.1033511962890625	0.17174473571777343	0		-0.605174560546875	-2.77723095703125	0		1.0997822265625	-0.8442095336914063	0		2.885869384765625	-0.7510572509765625	0		4.39891748046875	-0.3936805725097656	0		5.92138330078125	0.40759735107421874	0		-0.14459197998046874	5.95160546875	0		
0.019363162994384765	0.011029869079589845	0		0.5344421997070312	-2.61724755859375	0		-1.0308011474609375	0.17004254150390624	0		-0.5667843017578125	-2.77632080078125	0		1.1274034423828125	-0.8382091064453125	0		2.8929384765625	-0.721784912109375	0		4.40287841796875	-0.3714545593261719	0		5.91932470703125	0.4258329162597656	0		-0.028383420944213866	5.96301611328125	0		
0.011766507148742675	0.004798667907714844	0		0.529722412109375	-2.620572021484375	0		-1.0371578369140626	0.17586192321777344	0		-0.619315185546875	-2.768655029296875	0		1.12380517578125	-0.8415930786132813	0		2.867008544921875	-0.7428662719726562	0		4.3982744140625	-0.377043212890625	0		5.91473681640625	0.41814083862304685	0		-0.16183625793457032	5.944197265625	0		
0.004140100002288818	-0.0014104640483856201	0		0.5539534912109375	-2.62542919921875	0		-0.9697291870117187	0.17128480529785156	0		-0.5793460083007812	-2.786739990234375	0		1.126331298828125	-0.8370700073242188	0		2.8857109375	-0.729767578125	0		4.40186962890625	-0.37075784301757814	0		5.91427099609375	0.4184029235839844	0		-0.160953369140625	5.94384521484375	0		
0.0036210849285125734	-7.381880283355713E-4	0		0.5003730163574219	-2.61877392578125	0		-1.06823828125	0.17290374755859375	0		-0.583119140625	-2.789971923828125	0		1.13469970703125	-0.8396417846679688	0		2.896854736328125	-0.7445071411132812	0		4.40132666015625	-0.37036614990234373	0		5.91445166015625	0.4016820373535156	0		-0.1610930633544922	5.9445283203125	0		
0.003079138994216919	-5.4561998695135117E-5	0		0.5374940795898437	-2.62785107421875	0		-1.0268741455078125	0.16784223937988282	0		-0.6099578247070313	-2.79575048828125	0		1.1203223876953126	-0.8277577514648438	0		2.894693115234375	-0.7219617919921875	0		4.40697412109375	-0.35906292724609373	0		5.91391455078125	0.4010128479003906	0		-0.027880355834960936	5.96465234375	0		
0.013706517219543458	0.010420679092407226	0		0.5139266967773437	-2.619746826171875	0		-1.061171142578125	0.182243408203125	0		-0.5757385864257812	-2.79870361328125	0		1.1258475341796874	-0.8202460327148438	0		2.90560400390625	-0.7466568603515625	0		4.410505859375	-0.35269134521484374	0		5.92237060546875	0.401206787109375	0		-0.043329505920410155	5.9546357421875	0		
0.0019285399913787841	0.0013257369995117187	0		0.5521861572265625	-2.620837158203125	0		-1.0280074462890625	0.16932861328125	0		-0.61651171875	-2.800208984375	0		1.1400244140625	-0.829899169921875	0		2.921482177734375	-0.7204224853515625	0		4.39478857421875	-0.3579228820800781	0		5.91697900390625	0.4107051391601563	0		-0.04362712860107422	5.95532861328125	0		
0.0013170360326766968	0.0020099170207977294	0		0.5244677124023438	-2.61965185546875	0		-1.0655853271484375	0.17177565002441406	0		-0.57456201171875	-2.8163310546875	0		1.14245458984375	-0.8253226318359375	0		2.891631591796875	-0.73029736328125	0		4.40515966796875	-0.35764016723632813	0		5.91222998046875	0.4032158203125	0		-0.17640628051757812	5.93558447265625	0		
0.015401524543762207	-0.011609062194824219	0		0.5237294311523437	-2.6190009765625	0		-1.066218994140625	0.17248605346679688	0		-0.6153390502929688	-2.816859619140625	0		1.150723388671875	-0.82786962890625	0		2.898021240234375	-0.7268720703125	0		4.3976240234375	-0.35099957275390625	0		5.91158544921875	0.40266497802734375	0		-0.16063235473632811	5.94594775390625	0		
-0.07696143341064453	0.005831315040588379	0		0.5099541625976562	-2.619114990234375	0		-1.0839217529296874	0.1715022430419922	0		-0.6032427368164063	-2.8234423828125	0		1.1640794677734374	-0.824531494140625	0		2.937005126953125	-0.743094482421875	0		4.4048798828125	-0.35364935302734374	0		5.91992431640625	0.4029456481933594	0		-0.1581892547607422	5.942544921875	0		
0.024215501785278322	-5.362060070037842E-4	0		0.5480303344726563	-2.62626806640625	0		-1.043572265625	0.17435289001464843	0		-0.6040281372070313	-2.822803955078125	0		1.1725438232421874	-0.8141202392578125	0		2.921827880859375	-0.7142677612304688	0		4.4024375	-0.33911505126953123	0		5.91538671875	0.4114776306152344	0		-0.028284563064575195	5.964626953125	0		
0.013285761833190917	-0.00975188636779785	0		0.5244909057617188	-2.612246337890625	0		-1.05918408203125	0.1812571258544922	0		-0.5790899658203125	-2.835708251953125	0		1.17178857421875	-0.8135604858398438	0		2.9266044921875	-0.7378619995117187	0		4.40957470703125	-0.3447867736816406	0		5.90534912109375	0.39610455322265625	0		-0.16030464172363282	5.94478125	0		
0.007623216152191162	-0.004107816219329834	0		0.52164013671875	-2.613669677734375	0		-1.0599417724609375	0.18182513427734376	0		-0.6199573974609375	-2.837365966796875	0		1.1740892333984374	-0.8090953369140625	0		2.923064453125	-0.7253150634765625	0		4.408806640625	-0.3443251037597656	0		5.904595703125	0.3965371398925781	0		-0.029525114059448243	5.96576318359375	0		
-0.06522383117675781	-0.006193865776062011	0		0.530637939453125	-2.622369384765625	0		-1.053977294921875	0.16921012878417968	0		-0.5801258544921875	-2.8546533203125	0		1.1763521728515625	-0.8056705932617187	0		2.961831787109375	-0.74763818359375	0		4.40801904296875	-0.34389242553710936	0		5.9038193359375	0.3969460144042969	0		-0.19572956848144532	5.94150439453125	0		
0.010943845748901367	-0.008247269630432128	0		0.5318446655273438	-2.619960693359375	0		-1.08263037109375	0.17722650146484376	0		-0.606113037109375	-2.861698974609375	0		1.1896195068359374	-0.8015061645507813	0		2.92575634765625	-0.709523193359375	0		4.40345263671875	-0.33141888427734373	0		5.91200537109375	0.3961476745605469	0		-0.16137806701660157	5.94527490234375	0		
-5.233200192451477E-4	0.009370664596557617	0		0.535091552734375	-2.61564013671875	0		-1.0834310302734376	0.17764369201660157	0		-0.5869110107421875	-2.8596796875	0		1.2097650146484376	-0.80352490234375	0		2.951411376953125	-0.7366734619140625	0		4.41052734375	-0.33721640014648435	0		5.9153828125	0.4054095458984375	0		-0.16211685180664062	5.94568212890625	0		
0.009347051620483398	-0.00748680305480957	0		0.5322362670898437	-2.61725	0		-1.0842235107421876	0.17800808715820313	0		-0.6179984741210938	-2.87272802734375	0		1.208964111328125	-0.8031801147460937	0		2.951140869140625	-0.709348876953125	0		4.40357421875	-0.34477981567382815	0		5.9094365234375	0.3978135986328125	0		-0.045646953582763675	5.95574072265625	0		
